<mxfile host="app.diagrams.net" modified="2024-07-11T09:31:27.004Z" agent="Mozilla/5.0 (Macintosh; Intel Mac OS X 10_15_7) AppleWebKit/537.36 (KHTML, like Gecko) Chrome/126.0.0.0 Safari/537.36 Edg/126.0.0.0" etag="-7TaO4yn39-zfNYxwW52" version="24.6.4" type="github">
  <diagram name="第 1 页" id="6-X0xj8OGYrMKmh0F_nJ">
    <mxGraphModel dx="906" dy="620" grid="1" gridSize="10" guides="1" tooltips="1" connect="1" arrows="1" fold="1" page="1" pageScale="1" pageWidth="5000" pageHeight="5000" math="0" shadow="0">
      <root>
        <mxCell id="0" />
        <mxCell id="1" parent="0" />
        <mxCell id="aBGzTBD0Jh0d6HExCQwd-2" value="page" style="rounded=0;whiteSpace=wrap;html=1;" vertex="1" parent="1">
          <mxGeometry x="290" y="850" width="120" height="60" as="geometry" />
        </mxCell>
        <mxCell id="aBGzTBD0Jh0d6HExCQwd-3" value="xming 插件" style="rounded=0;whiteSpace=wrap;html=1;" vertex="1" parent="1">
          <mxGeometry x="640" y="850" width="120" height="60" as="geometry" />
        </mxCell>
        <mxCell id="aBGzTBD0Jh0d6HExCQwd-12" value="SDK" style="text;html=1;align=center;verticalAlign=middle;resizable=0;points=[];autosize=1;strokeColor=none;fillColor=none;" vertex="1" parent="1">
          <mxGeometry x="280" y="940" width="50" height="30" as="geometry" />
        </mxCell>
        <mxCell id="aBGzTBD0Jh0d6HExCQwd-21" value="" style="group" vertex="1" connectable="0" parent="1">
          <mxGeometry x="290" y="960" width="470" height="150" as="geometry" />
        </mxCell>
        <mxCell id="aBGzTBD0Jh0d6HExCQwd-1" value="" style="rounded=0;whiteSpace=wrap;html=1;" vertex="1" parent="aBGzTBD0Jh0d6HExCQwd-21">
          <mxGeometry width="470" height="150" as="geometry" />
        </mxCell>
        <mxCell id="aBGzTBD0Jh0d6HExCQwd-13" value="错误处理" style="rounded=0;whiteSpace=wrap;html=1;" vertex="1" parent="aBGzTBD0Jh0d6HExCQwd-21">
          <mxGeometry x="7.34375" y="10" width="51.40625" height="130" as="geometry" />
        </mxCell>
        <mxCell id="aBGzTBD0Jh0d6HExCQwd-14" value="日志记录" style="rounded=0;whiteSpace=wrap;html=1;" vertex="1" parent="aBGzTBD0Jh0d6HExCQwd-21">
          <mxGeometry x="411.25" y="10" width="51.40625" height="130" as="geometry" />
        </mxCell>
        <mxCell id="aBGzTBD0Jh0d6HExCQwd-15" value="数据校验" style="rounded=0;whiteSpace=wrap;html=1;" vertex="1" parent="aBGzTBD0Jh0d6HExCQwd-21">
          <mxGeometry x="73.4375" y="10" width="330.46875" height="40" as="geometry" />
        </mxCell>
        <mxCell id="aBGzTBD0Jh0d6HExCQwd-16" value="操作组装" style="rounded=0;whiteSpace=wrap;html=1;" vertex="1" parent="aBGzTBD0Jh0d6HExCQwd-21">
          <mxGeometry x="73.4375" y="60" width="95.46875" height="30" as="geometry" />
        </mxCell>
        <mxCell id="aBGzTBD0Jh0d6HExCQwd-17" value="参数处理" style="rounded=0;whiteSpace=wrap;html=1;" vertex="1" parent="aBGzTBD0Jh0d6HExCQwd-21">
          <mxGeometry x="73.4375" y="100" width="95.46875" height="30" as="geometry" />
        </mxCell>
        <mxCell id="aBGzTBD0Jh0d6HExCQwd-19" value="流式转换" style="rounded=0;whiteSpace=wrap;html=1;" vertex="1" parent="aBGzTBD0Jh0d6HExCQwd-21">
          <mxGeometry x="308.4375" y="100" width="95.46875" height="30" as="geometry" />
        </mxCell>
        <mxCell id="aBGzTBD0Jh0d6HExCQwd-20" value="数据转换" style="rounded=0;whiteSpace=wrap;html=1;" vertex="1" parent="aBGzTBD0Jh0d6HExCQwd-21">
          <mxGeometry x="308.4375" y="60" width="95.46875" height="30" as="geometry" />
        </mxCell>
        <mxCell id="aBGzTBD0Jh0d6HExCQwd-22" value="开发套件&lt;br&gt;（脚手架）" style="rounded=0;whiteSpace=wrap;html=1;" vertex="1" parent="1">
          <mxGeometry x="770" y="850" width="90" height="260" as="geometry" />
        </mxCell>
        <mxCell id="aBGzTBD0Jh0d6HExCQwd-23" value="dev xming" style="rounded=0;whiteSpace=wrap;html=1;" vertex="1" parent="1">
          <mxGeometry x="780" y="855" width="70" height="50" as="geometry" />
        </mxCell>
        <mxCell id="aBGzTBD0Jh0d6HExCQwd-24" value="" style="group" vertex="1" connectable="0" parent="1">
          <mxGeometry x="280" y="1138" width="580" height="120" as="geometry" />
        </mxCell>
        <mxCell id="aBGzTBD0Jh0d6HExCQwd-4" value="" style="rounded=0;whiteSpace=wrap;html=1;" vertex="1" parent="aBGzTBD0Jh0d6HExCQwd-24">
          <mxGeometry x="10" y="21" width="570" height="100" as="geometry" />
        </mxCell>
        <mxCell id="aBGzTBD0Jh0d6HExCQwd-5" value="prompt" style="rounded=0;whiteSpace=wrap;html=1;" vertex="1" parent="aBGzTBD0Jh0d6HExCQwd-24">
          <mxGeometry x="20" y="30" width="60" height="80" as="geometry" />
        </mxCell>
        <mxCell id="aBGzTBD0Jh0d6HExCQwd-6" value="Assistants" style="rounded=0;whiteSpace=wrap;html=1;" vertex="1" parent="aBGzTBD0Jh0d6HExCQwd-24">
          <mxGeometry x="90" y="30" width="60" height="80" as="geometry" />
        </mxCell>
        <mxCell id="aBGzTBD0Jh0d6HExCQwd-7" value="knowledge" style="rounded=0;whiteSpace=wrap;html=1;" vertex="1" parent="aBGzTBD0Jh0d6HExCQwd-24">
          <mxGeometry x="160" y="30" width="60" height="80" as="geometry" />
        </mxCell>
        <mxCell id="aBGzTBD0Jh0d6HExCQwd-8" value="s3" style="rounded=0;whiteSpace=wrap;html=1;" vertex="1" parent="aBGzTBD0Jh0d6HExCQwd-24">
          <mxGeometry x="230" y="30" width="60" height="80" as="geometry" />
        </mxCell>
        <mxCell id="aBGzTBD0Jh0d6HExCQwd-9" value="..." style="rounded=0;whiteSpace=wrap;html=1;" vertex="1" parent="aBGzTBD0Jh0d6HExCQwd-24">
          <mxGeometry x="300" y="30" width="60" height="80" as="geometry" />
        </mxCell>
        <mxCell id="aBGzTBD0Jh0d6HExCQwd-11" value="server" style="text;html=1;align=center;verticalAlign=middle;resizable=0;points=[];autosize=1;strokeColor=none;fillColor=none;" vertex="1" parent="aBGzTBD0Jh0d6HExCQwd-24">
          <mxGeometry width="60" height="30" as="geometry" />
        </mxCell>
        <mxCell id="aBGzTBD0Jh0d6HExCQwd-28" value="" style="shape=flexArrow;endArrow=classic;startArrow=classic;html=1;rounded=0;entryX=0.5;entryY=1;entryDx=0;entryDy=0;" edge="1" parent="aBGzTBD0Jh0d6HExCQwd-24">
          <mxGeometry width="100" height="100" relative="1" as="geometry">
            <mxPoint x="280" y="20" as="sourcePoint" />
            <mxPoint x="280" y="-28" as="targetPoint" />
          </mxGeometry>
        </mxCell>
        <mxCell id="aBGzTBD0Jh0d6HExCQwd-26" value="" style="shape=flexArrow;endArrow=classic;startArrow=classic;html=1;rounded=0;entryX=0.5;entryY=1;entryDx=0;entryDy=0;" edge="1" parent="1" target="aBGzTBD0Jh0d6HExCQwd-2">
          <mxGeometry width="100" height="100" relative="1" as="geometry">
            <mxPoint x="350" y="958" as="sourcePoint" />
            <mxPoint x="350" y="910" as="targetPoint" />
          </mxGeometry>
        </mxCell>
        <mxCell id="aBGzTBD0Jh0d6HExCQwd-27" value="" style="shape=flexArrow;endArrow=classic;startArrow=classic;html=1;rounded=0;entryX=0.5;entryY=1;entryDx=0;entryDy=0;" edge="1" parent="1">
          <mxGeometry width="100" height="100" relative="1" as="geometry">
            <mxPoint x="699.5" y="958" as="sourcePoint" />
            <mxPoint x="699.5" y="910" as="targetPoint" />
          </mxGeometry>
        </mxCell>
        <mxCell id="aBGzTBD0Jh0d6HExCQwd-29" value="" style="curved=1;endArrow=classic;html=1;rounded=0;entryX=0.25;entryY=1;entryDx=0;entryDy=0;dashed=1;" edge="1" parent="1" target="aBGzTBD0Jh0d6HExCQwd-3">
          <mxGeometry width="50" height="50" relative="1" as="geometry">
            <mxPoint x="380" y="910" as="sourcePoint" />
            <mxPoint x="430" y="860" as="targetPoint" />
            <Array as="points">
              <mxPoint x="410" y="960" />
              <mxPoint x="640" y="970" />
            </Array>
          </mxGeometry>
        </mxCell>
        <mxCell id="aBGzTBD0Jh0d6HExCQwd-30" value="" style="curved=1;endArrow=none;html=1;rounded=0;entryX=0.25;entryY=1;entryDx=0;entryDy=0;dashed=1;startArrow=classic;startFill=1;endFill=0;" edge="1" parent="1">
          <mxGeometry width="50" height="50" relative="1" as="geometry">
            <mxPoint x="380" y="905" as="sourcePoint" />
            <mxPoint x="670" y="905" as="targetPoint" />
            <Array as="points">
              <mxPoint x="410" y="955" />
              <mxPoint x="640" y="965" />
            </Array>
          </mxGeometry>
        </mxCell>
      </root>
    </mxGraphModel>
  </diagram>
</mxfile>
